<svg xmlns="http://www.w3.org/2000/svg" width="2048" height="2048" viewBox="0 0 512 512"><g transform="matrix(1, 0, 0, 1, 256, 256)"><ellipse cx="0" cy="0" rx="179.2" ry="179.2" style="fill:#F5F5F5;"/><path d="M79.75,26.46 Q41.11,-5.76 32.41,-19.53 C25,-31.26 29.83,-53.94 52.54,-56.64 C72.74,-59.03 114.07,-35.86 126.45,0 C144.35,51.89 133.52,68.01 161.91,113.22 C175.23,134.44 189.11,155.43 189.56,155.43" fill-rule="evenodd" style="fill:none;stroke:#000000;stroke-linecap:round;stroke-linejoin:round;stroke-width:5;"/><path d="M46.68,-3.02 L46.68,105 L-68.55,105M46.68,-125.33 L46.68,-55.4M-18.21,-125.33 L46.68,-125.33M-68.55,105 L-68.55,-89.53" style="fill:none;stroke:#000000;stroke-linecap:round;stroke-linejoin:round;stroke-width:5;"/><path d="M71.83,19.77 L71.83,98.53 C71.83,120.62 53.92,138.53 31.83,138.53 L-51.09,138.53 C-73.18,138.53 -91.09,120.62 -91.09,98.53 L-91.09,-89.53M31.83,-169.93 C53.92,-169.93 71.83,-152.02 71.83,-129.93 L71.83,-53.5M-18.21,-169.93 L31.83,-169.93" style="fill:none;stroke:#000000;stroke-linecap:round;stroke-linejoin:round;stroke-width:5;"/><path d="M-46.94,-89.53 L-161.65,-89.53 C-172.7,-89.53 -181.65,-98.48 -181.65,-109.53 L-181.65,-182.51 C-181.65,-193.56 -172.7,-202.51 -161.65,-202.51 L-38.21,-202.51 C-27.16,-202.51 -18.21,-193.56 -18.21,-182.51 L-18.21,-109.53M-18.21,-182.51 L-18.21,-65.72M-46.94,-89.53 L-161.65,-89.53M-46.94,-89.53 L-18.21,-65.72" style="fill:none;stroke:#000000;stroke-linecap:round;stroke-linejoin:round;stroke-width:5;"/><path d="M25.52,204.34 C9.89,181.34 -10.4,152.92 -29.71,138.53" fill-rule="evenodd" style="fill:none;stroke:#000000;stroke-linecap:round;stroke-linejoin:round;stroke-width:5;"/><path d="M-91.09,93.7 Q-123.93,68.79 -136.88,50.81 C-149.83,32.82 -142.86,5.16 -113.56,13.06 C-101.26,16.38 -92.87,25.64 -91.09,26.19" fill-rule="evenodd" style="fill:none;stroke:#000000;stroke-linecap:round;stroke-linejoin:round;stroke-width:5;"/><path d="M-91.09,-39.34 Q-105.88,-48.8 -113.94,-51.22 C-135.08,-57.57 -149.62,-34.17 -136.07,-14.59 C-126.6,-0.91 -104.23,16.66 -101.76,18.37" fill-rule="evenodd" style="fill:none;stroke:#000000;stroke-linecap:round;stroke-linejoin:round;stroke-width:5;"/><path d="M-126.9,-89.53 Q-136.07,-72.72 -104.3,-47.09" fill-rule="evenodd" style="fill:none;stroke:#000000;stroke-linecap:round;stroke-linejoin:round;stroke-width:5;"/><line x1="-143.29" y1="-118.46" x2="-65.3" y2="-118.46" style="fill:none;stroke:#000000;stroke-linecap:round;stroke-linejoin:round;stroke-width:5;"/><path d="M-91.53,-118.46 C-91.53,-111.41 -97.24,-105.69 -104.3,-105.69 C-111.35,-105.69 -117.07,-111.41 -117.07,-118.46" style="fill:none;stroke:#000000;stroke-linecap:round;stroke-linejoin:round;stroke-width:5;"/><path d="M-74.84,-139.78 L-74.84,-118.46 L-133.76,-118.46 L-133.76,-139.78" style="fill:none;stroke:#000000;stroke-linecap:round;stroke-linejoin:round;stroke-width:5;"/><path d="M-74.84,-139.78 C-74.84,-163.38 -88.03,-182.51 -104.3,-182.51 C-120.57,-182.51 -133.76,-163.38 -133.76,-139.78" fill-rule="evenodd" style="fill:none;stroke:#000000;stroke-linecap:round;stroke-linejoin:round;stroke-width:5;"/></g></svg>