<svg xmlns="http://www.w3.org/2000/svg" width="2048" height="2048" viewBox="0 0 512 512"><g transform="matrix(1, 0, 0, 1, 256, 256)"><ellipse cx="0" cy="0" rx="179.2" ry="179.2" style="fill:#F5F5F5;"/><path d="M72.82,108.08 Q28.71,90.68 27.07,36.16 C27.07,31.36 -1.16,15.74 -17.73,-1.79 C-34.31,-19.33 -27.98,-58.22 16.93,-44.67 C43.32,-36.71 77.07,-9.46 84.33,-3.98" fill-rule="evenodd" style="fill:none;stroke:#000000;stroke-linecap:round;stroke-linejoin:round;stroke-width:5;"/><path d="M-14.32,1.64 L-61.74,1.64 L-161.89,1.64 C-175.69,1.64 -186.89,-9.55 -186.89,-23.36 L-186.89,-147.1 C-186.89,-160.91 -175.69,-172.1 -161.89,-172.1 L38.4,-172.1 C52.21,-172.1 63.4,-160.91 63.4,-147.1 L63.4,-23.36" style="fill:none;stroke:#000000;stroke-linecap:round;stroke-linejoin:round;stroke-width:5;"/><rect x="-186.89" y="-145.93" width="250.29" height="30.62" style="fill:none;stroke:#000000;stroke-linecap:round;stroke-linejoin:round;stroke-width:5;"/><line x1="-25.32" y1="-89.87" x2="36.3" y2="-89.87" style="fill:none;stroke:#000000;stroke-linecap:round;stroke-linejoin:round;stroke-width:5;"/><path d="M63.4,-75.32 Q166.92,7.45 203.39,55.66" fill-rule="evenodd" style="fill:none;stroke:#000000;stroke-linecap:round;stroke-linejoin:round;stroke-width:5;"/><path d="M9.67,21.07 Q16.64,64.44 -29.01,50.58 C-60.84,40.92 -65.86,6.78 -64.12,1.64" fill-rule="evenodd" style="fill:none;stroke:#000000;stroke-linecap:round;stroke-linejoin:round;stroke-width:5;"/><path d="M-59.07,28.54 Q-86.41,44.62 -68.48,74.55 C-57.12,93.49 -27.56,96.76 -11.93,91.97 C3.71,87.18 6.63,62 -11.93,54.33" fill-rule="evenodd" style="fill:none;stroke:#000000;stroke-linecap:round;stroke-linejoin:round;stroke-width:5;"/><path d="M43.5,206.35 Q-5.27,126.9 -40.94,92.36" fill-rule="evenodd" style="fill:none;stroke:#000000;stroke-linecap:round;stroke-linejoin:round;stroke-width:5;"/></g></svg>