<svg xmlns="http://www.w3.org/2000/svg" width="2048" height="2048" viewBox="0 0 512 512"><g transform="matrix(1, 0, 0, 1, 256, 256)"><ellipse cx="0" cy="0" rx="179.2" ry="179.2" style="fill:#F5F5F5;"/><path d="M-53.16,-159.16 Q-26.44,-159.16 2.65,-177.25 Q31.95,-159.16 58.67,-159.16 Q58.67,-132.12 58.67,-103.25 C58.67,-65.97 3.96,-47.34 2.76,-47.34 C1.55,-47.34 -53.16,-65.97 -53.16,-103.25 Q-53.16,-131.17 -53.16,-159.16 Z" fill-rule="evenodd" style="fill:none;stroke:#000000;stroke-linecap:round;stroke-linejoin:round;stroke-width:5;"/><path d="M-84.84,-185.71 Q-42.98,-185.71 2.59,-214.06 Q48.49,-185.71 90.35,-185.71 Q90.35,-143.35 90.35,-98.12 C90.35,-39.73 4.64,-10.53 2.76,-10.53 C0.87,-10.53 -84.84,-39.73 -84.84,-98.12 Q-84.84,-141.86 -84.84,-185.71 Z" fill-rule="evenodd" style="fill:none;stroke:#000000;stroke-linecap:round;stroke-linejoin:round;stroke-width:5;"/><path d="M-207.24,54.11 Q-101.46,0.16 17.94,20.63 C56.71,27.27 81.82,13.72 109.01,-0.34 C129.23,-10.8 148.94,12.83 136.53,27.73" fill-rule="evenodd" style="fill:none;stroke:#000000;stroke-linecap:round;stroke-linejoin:round;stroke-width:5;"/><path d="M49.29,59.67 Q90.15,52.17 125.35,32.34 C160.24,12.69 180.58,49.41 156.24,63.63" fill-rule="evenodd" style="fill:none;stroke:#000000;stroke-linecap:round;stroke-linejoin:round;stroke-width:5;"/><path d="M59.52,94.45 Q96.47,90.67 132.6,69.37 C166.89,49.15 182.79,89.61 151.11,113.04 C135.64,124.48 99.2,144.55 17.94,156.29 C-63.32,168.04 -105.13,171.16 -139.41,197.75" fill-rule="evenodd" style="fill:none;stroke:#000000;stroke-linecap:round;stroke-linejoin:round;stroke-width:5;"/><path d="M-96.92,51.3 Q-72.36,46.34 -46.68,73.37 C-43.77,76.42 -27.04,78.68 -3.86,69.37 C19.32,60.06 36.88,91.87 8.07,113.95 C-19.97,135.44 -47.45,144.74 -87.6,142.88" fill-rule="evenodd" style="fill:none;stroke:#000000;stroke-linecap:round;stroke-linejoin:round;stroke-width:5;"/></g></svg>