<svg xmlns="http://www.w3.org/2000/svg" width="2048" height="2048" viewBox="0 0 512 512"><g transform="matrix(1, 0, 0, 1, 256, 256)"><ellipse cx="0" cy="0" rx="179.2" ry="179.2" style="fill:#F5F5F5;"/><path d="M211.19,78.66 Q153.21,5.58 104.32,-38.09" fill-rule="evenodd" style="fill:none;stroke:#000000;stroke-linecap:round;stroke-linejoin:round;stroke-width:5;"/><path d="M-81.38,-10.13 C-70.83,-6.1 -59.55,-2.98 -47.74,-0.89 C-42.06,0.12 -36.26,0.88 -30.35,1.39 C-27.47,1.64 -24.56,1.83 -21.62,1.95 C-20.17,2.01 -18.72,2.06 -17.26,2.09 C-16.53,2.11 -15.81,2.12 -15.08,2.13M67.12,-15.03 L67.12,-15.03M67.12,-15.03 C67.61,-15.26 68.1,-15.49 68.59,-15.73 C70.55,-16.67 72.48,-17.65 74.38,-18.66 C78.24,-20.71 81.96,-22.9 85.53,-25.2 C117.37,-45.76 137.51,-76.12 137.51,-109.98 C137.51,-171.9 70.17,-222.1 -12.9,-222.1 C-95.97,-222.1 -163.31,-171.9 -163.31,-109.98 C-163.31,-79.96 -147.48,-52.69 -121.7,-32.57" fill-rule="evenodd" style="fill:none;stroke:#000000;stroke-linecap:round;stroke-linejoin:round;stroke-width:5;"/><path d="M-121.7,-32.57 L-146.26,17.95 L-81.38,-10.13" fill-rule="evenodd" style="fill:none;stroke:#000000;stroke-linecap:round;stroke-linejoin:round;stroke-width:5;"/><path d="M89,-0.32 Q42.94,-30.4 23.2,-35.35 C-12.31,-44.26 -35.17,-17.07 -12.9,4.39 C12.32,28.68 29.18,39.83 33.77,42.38 C32.38,81.04 50.5,99.75 79.83,120.96" fill-rule="evenodd" style="fill:none;stroke:#000000;stroke-linecap:round;stroke-linejoin:round;stroke-width:5;"/><path d="M-57.63,-1.42 Q-63.52,46.72 -17,61.87 C21.63,74.44 21.01,35.43 15.93,29.79" fill-rule="evenodd" style="fill:none;stroke:#000000;stroke-linecap:round;stroke-linejoin:round;stroke-width:5;"/><path d="M-50.66,38.09 Q-79.96,59.71 -60.42,87.05 C-42.46,112.17 -9.15,105.67 3.59,97.32 C11.97,91.83 16.77,69.77 -2.87,64.35" fill-rule="evenodd" style="fill:none;stroke:#000000;stroke-linecap:round;stroke-linejoin:round;stroke-width:5;"/><path d="M-29.61,104.52 Q17.07,154.48 55.67,223.21" fill-rule="evenodd" style="fill:none;stroke:#000000;stroke-linecap:round;stroke-linejoin:round;stroke-width:5;"/><path d="M-186.47,-131.21 Q-194.14,-90.5 -173.31,-57.53" fill-rule="evenodd" style="fill:none;stroke:#000000;stroke-linecap:round;stroke-linejoin:round;stroke-width:5;"/><path d="M-210.37,-124.58 Q-215.75,-85.87 -195.5,-52.16" fill-rule="evenodd" style="fill:none;stroke:#000000;stroke-linecap:round;stroke-linejoin:round;stroke-width:5;"/></g></svg>