<svg xmlns="http://www.w3.org/2000/svg" width="2048" height="2048" viewBox="0 0 2048 2048"><ellipse cx="1024" cy="1024" rx="720.7" ry="720.7" style="fill:#F1F1F1;"/><path d="M594.27,1109.33 Q588.88,856.55 586.52,735.14 C584.17,613.73 745.76,648.3 781.65,748.39 C817.53,848.48 811.04,1073.36 871.77,1279.83M978.8,1790.7 Q981.96,1673.53 1007.35,1365.08 C1024,1162.75 871.77,1083.66 818.81,986.96M424.05,1197.23 Q429.25,957.2 591.91,998.18M281.07,1549.84 Q276.49,1306.81 284.69,1189.85 C292.89,1072.89 397.37,1058.61 441.52,1077.99" fill-rule="evenodd" style="fill:none;stroke:#000000;stroke-linecap:round;stroke-linejoin:round;stroke-width:20;"/><path d="M1171.2,990.1 L1376.38,991.12 Q1376.64,570.3 1530.16,226.64 Q1366.82,146.04 1233.11,163.79 Q1171.2,474.52 1171.2,990.1" fill-rule="evenodd" style="fill:none;stroke:#000000;stroke-linecap:round;stroke-linejoin:round;stroke-width:20;"/><ellipse cx="1278.12" cy="1217.43" rx="125.06" ry="125.06" style="fill:none;stroke:#000000;stroke-linecap:round;stroke-linejoin:round;stroke-width:20;"/><path d="M416.93,460.83 Q491.39,509.25 549.97,597.23" fill-rule="evenodd" style="fill:none;stroke:#000000;stroke-linecap:round;stroke-linejoin:round;stroke-width:20;"/><path d="M621.63,401.12 Q657.93,457.4 668.7,557.73" fill-rule="evenodd" style="fill:none;stroke:#000000;stroke-linecap:round;stroke-linejoin:round;stroke-width:20;"/><path d="M808.37,441.52 Q812.58,499.6 776.89,567.83" fill-rule="evenodd" style="fill:none;stroke:#000000;stroke-linecap:round;stroke-linejoin:round;stroke-width:20;"/></svg>