<svg xmlns="http://www.w3.org/2000/svg" width="2048" height="2048" viewBox="0 0 2048 2048"><ellipse cx="1024" cy="1024" rx="720.7" ry="720.7" style="fill:#F1F1F1;"/><path d="M430.44,1655.65 Q531.23,1450.52 681.02,1261.47" fill-rule="evenodd" style="fill:none;stroke:#000000;stroke-linecap:round;stroke-linejoin:round;stroke-width:20;"/><path d="M771.1,1336.08 Q895.05,1224.49 963.62,1183.52 C1032.19,1142.56 1113.31,1182.07 1087.83,1284.35 C1074.93,1336.08 980.54,1419.29 971.86,1428.42 C963.18,1437.55 1027.18,1540 871.74,1696.54" fill-rule="evenodd" style="fill:none;stroke:#000000;stroke-linecap:round;stroke-linejoin:round;stroke-width:20;"/><path d="M545.32,1236.47 L545.32,677.7 C545.32,663.89 556.51,652.7 570.32,652.7 L994.09,1001.14M1442.85,1236.47 C1442.85,1250.27 1431.66,1261.47 1417.85,1261.47M1417.85,1261.47 L1092.62,1261.47M857.31,1261.47 L570.32,1261.47M570.32,652.7 L570.32,652.7M1417.85,1261.47 L1045.05,959.24M940.88,961.05 L570.32,1261.47M570.32,652.7 L667.87,575.9M892.29,398.9 L994.09,318.66M994.09,318.66 L1095.89,398.9M994.09,1001.14 L1413.58,656.21M1442.85,682.82 L1442.85,1236.47" style="fill:none;stroke:#000000;stroke-linecap:round;stroke-linejoin:round;stroke-width:20;"/><path d="M667.87,398.9 L1320.3,398.9M667.87,732.91 L667.87,398.9M1320.3,398.9 L1320.3,442.88M1320.3,611.64 L1320.3,732.91" style="fill:none;stroke:#000000;stroke-linecap:round;stroke-linejoin:round;stroke-width:20;"/><path d="M1586.24,933.31 Q1462.85,608.67 1285.85,608.42 C1108.85,608.17 1188.34,404.9 1370.47,449.54 C1489.82,478.8 1489.82,478.8 1457.1,344.03 1355.56,358.11 C1320.14,363.02 1292.38,382.1 1274.3,398.9" fill-rule="evenodd" style="fill:none;stroke:#000000;stroke-linecap:round;stroke-linejoin:round;stroke-width:20;"/><path d="M1157.06,396.12 Q1213.63,175.26 1458.93,230.08" fill-rule="evenodd" style="fill:none;stroke:#000000;stroke-linecap:round;stroke-linejoin:round;stroke-width:20;"/><path d="M1509.89,156.18 Q1318.5,131.67 1272,238.53" fill-rule="evenodd" style="fill:none;stroke:#000000;stroke-linecap:round;stroke-linejoin:round;stroke-width:20;"/><path d="M1933.76,507.71 Q1627.68,-35.05 1338.67,170.97" fill-rule="evenodd" style="fill:none;stroke:#000000;stroke-linecap:round;stroke-linejoin:round;stroke-width:20;"/><line x1="808.22" y1="645.19" x2="1179.95" y2="645.19" style="fill:none;stroke:#000000;stroke-linecap:round;stroke-linejoin:round;stroke-width:20;"/><line x1="808.22" y1="525.55" x2="1179.95" y2="525.55" style="fill:none;stroke:#000000;stroke-linecap:round;stroke-linejoin:round;stroke-width:20;"/><line x1="808.22" y1="766.98" x2="1179.95" y2="766.98" style="fill:none;stroke:#000000;stroke-linecap:round;stroke-linejoin:round;stroke-width:20;"/><path d="M570.32,1261.47 C556.51,1261.47 545.32,1250.27 545.32,1236.47" style="fill:none;stroke:#000000;stroke-linecap:round;stroke-linejoin:round;stroke-width:20;"/></svg>