<svg xmlns="http://www.w3.org/2000/svg" width="512" height="512" viewBox="0 0 512 512">
	<ellipse cx="256" cy="256" rx="185.4" ry="185.4" style="fill:#F1F1F1;"/>
	<path d="M29.57,401.74 Q77.91,336.64 80.05,287.77 C78.75,240.01 63.57,217.67 64.01,184.41 C64.46,150.64 75.1,141.09 86.82,140.02 C98.54,138.96 106.64,146.65 109.46,161.27 C110.68,167.62 114.96,220.15 122.72,234.57 C123.67,242.2 124.68,152.2 144.74,111.84 C151.46,98.31 166.82,94.64 175.04,96.29 C188.99,99.1 193.45,111.88 190.95,124.91 C188.44,137.93 171.14,164.63 175.83,204.53 C185.2,168.62 213.16,140.27 238.68,126.4 C250.71,119.86 269.84,117.97 279.1,127.97 C288.36,137.96 281.43,153.55 267.12,164.86 C234.77,190.42 207.17,242 216.1,281.82 C225.03,321.64 263.77,311.67 292.27,311.67 C320.78,311.67 334.77,351.07 296.45,364.66 C229.75,388.32 194.35,406.78 172.45,462.42" fill-rule="evenodd" style="fill:none;stroke:#000000;stroke-linecap:round;stroke-linejoin:round;stroke-width:5;"/>
	<path d="M435.27,225.28 C435.27,277.52 392.92,319.87 340.68,319.87 C288.43,319.87 246.08,277.52 246.08,225.28 C246.08,173.03 288.43,130.68 340.68,130.68 C392.92,130.68 435.27,173.03 435.27,225.28 Z" style="fill:none;stroke:#000000;stroke-linecap:round;stroke-linejoin:round;stroke-width:5;"/>
	<path d="M389.24,225.28 L320.87,278.16 L320.87,172.4 L389.24,225.28" style="fill:none;stroke:#000000;stroke-linecap:round;stroke-linejoin:round;stroke-width:5;"/>
</svg>